# xmcd CD database file
#
# Track frame offsets:
#	150
#	19675
#	41425
#	67400
#	98585
#	117627
#	141570
#	156240
#	172945
#	192362
#	203267
#	218945
#
# Disc length: 3207 seconds
#
# Revision: 0
# Processed by: cddbd v1.4PL0 Copyright (c) Steve Scherf et al.
# Submitted via: CDex 1.50beta10
#
DISCID=ad0c850c
DTITLE=Daniel Paul - Rhythms Of Paradise
DYEAR=1996
DGENRE=New Age
TTITLE0=Neptune's Court
TTITLE1=Dream Walker
TTITLE2=Oceania
TTITLE3=Song Of The Sea
TTITLE4=Rapture
TTITLE5=Moroccan Moon
TTITLE6=Rhythms Of Paradise ( Prelude )
TTITLE7=Rhythms Of Paradise
TTITLE8=Magic Islands 
TTITLE9=Forty Thousand Leagues
TTITLE10=Tales Of The Golden Age
TTITLE11=Wave Runner
EXTD=YEAR: 1996
EXTT0=
EXTT1=
EXTT2=
EXTT3=
EXTT4=
EXTT5=
EXTT6=
EXTT7=
EXTT8=
EXTT9=
EXTT10=
EXTT11=
PLAYORDER=
